<svg xmlns="http://www.w3.org/2000/svg" width="228" height="45" viewBox="0 0 228 45" fill="none">
  <path d="M9.09248 22.886H7.39993L7.0559 24.5432L3.79643 40.244L3.27685 42.7468H5.83301H17.124H18.8055L19.1578 41.1026L20.0198 37.08H26.8977L26.2123 40.2237L25.6621 42.7468H28.2445H39.5994H41.2874L41.6349 41.0949L42.4792 37.08H66.843H67.2116H68.9013H69.4084H80.7633H82.4496L82.7983 35.4301L84.1039 29.2531L84.2848 29.0628L86.7831 35.7299L87.289 37.08H88.7309H92.8794H96.4454H100.831H103.853H108.972H110.31L110.865 35.8619L112.696 31.8393H116.783L116.928 35.0929L117.017 37.08H119.006H127.905H130.47H130.915H133.313H141.825H143.511L143.86 35.4302L145.727 26.5986H148.675L146.99 34.5699L146.46 37.08H149.025H156.37H159.936H160.359H162.045H172.462H173.801L174.355 35.8619L176.187 31.8393H180.273L180.418 35.0929L180.507 37.08H182.496H194.405H194.42H196.803H196.985H208.34H210.027L210.375 35.4299L214.266 17.0119H220.419H222.102L222.454 15.3661L224.69 4.88463L225.227 2.3705H222.656H195.601H193.918L193.566 4.01638L192.674 8.19613L192.097 4.15614L191.841 2.3705H190.038H177.213H176L175.402 3.42656L165.431 21.058L168.849 4.8805L169.38 2.3705H166.814H155.48H153.799L153.447 4.01439L151.648 12.4045H148.701L150.314 4.88662L150.853 2.3705H148.28H136.925H135.239L134.89 4.0205L131.131 21.812L128.607 4.15614L128.351 2.3705H126.548H113.723H112.509L111.912 3.42656L99.4282 25.5005L96.5109 17.8656L107.919 5.88486L111.266 2.3705H106.413H93.4603H92.5655L91.9502 3.0201L88.9854 6.15003L89.2535 4.88003L89.7831 2.3705H87.2183H75.8634H75.8009H74.177H73.2405H48.1447H46.5786H46.4583H44.0093H18.9135H17.2287L16.8788 4.01852L14.7485 14.0526L14.7484 14.0529C14.4789 15.3236 14.0969 16.5031 13.6069 17.5962C13.0798 18.7719 12.6128 19.6281 12.2134 20.21L12.2055 20.2215L12.1978 20.2332C11.7761 20.8657 11.3131 21.4517 10.8089 21.9928C10.5293 22.2928 10.3053 22.5244 10.1326 22.694C10.0391 22.7859 9.97288 22.8474 9.9301 22.886H9.09248ZM195.841 30.351L193.935 17.0119H198.659L195.841 30.351ZM69.6576 23.7594H69.1289H67.806L69.4183 16.0164L69.486 15.6911H71.3232H71.3624L69.6576 23.7594Z" fill="#1C1C1C" stroke="#AE78F2" stroke-width="4.16"/>
</svg>