<svg width="229" height="159" viewBox="0 0 229 159" fill="none" xmlns="http://www.w3.org/2000/svg">
<path d="M75.7061 47.0506C67.7238 54.2323 55.4253 53.5896 48.2366 45.6152C41.0478 37.6408 41.6911 25.3543 49.6734 18.1727C57.6557 10.9911 69.9542 11.6337 77.143 19.6082C84.3317 27.5826 83.6884 39.869 75.7061 47.0506Z" fill="white"/>
<path d="M113.796 17.159C109.752 20.7973 103.522 20.4717 99.8797 16.4318C96.2378 12.3919 96.5637 6.16751 100.608 2.52924C104.652 -1.10904 110.882 -0.783458 114.524 3.25645C118.166 7.29635 117.84 13.5207 113.796 17.159Z" fill="white"/>
<path d="M185.55 65.034C180.029 70.001 171.523 69.5565 166.551 64.0412C161.579 58.5258 162.024 50.0282 167.545 45.0612C173.066 40.0941 181.572 40.5386 186.544 46.054C191.516 51.5693 191.071 60.067 185.55 65.034Z" fill="white"/>
<path d="M177.481 120.677C172.487 125.17 164.794 124.768 160.297 119.779C155.8 114.791 156.203 107.105 161.196 102.612C166.189 98.1199 173.883 98.522 178.38 103.51C182.876 108.499 182.474 116.185 177.481 120.677Z" fill="white"/>
<path d="M138.372 73.842C134.61 77.2272 128.813 76.9243 125.424 73.1654C122.036 69.4065 122.339 63.6151 126.101 60.2299C129.864 56.8448 135.661 57.1477 139.05 60.9066C142.438 64.6654 142.135 70.4568 138.372 73.842Z" fill="white"/>
<path d="M54.3038 112.847C50.5412 116.232 44.7441 115.929 41.3556 112.171C37.9671 108.412 38.2703 102.62 42.0329 99.2352C45.7955 95.85 51.5926 96.1529 54.9811 99.9118C58.3696 103.671 58.0664 109.462 54.3038 112.847Z" fill="white"/>
<path d="M132.297 155.107C126.073 160.707 116.484 160.206 110.878 153.988C105.273 147.77 105.775 138.19 111.999 132.59C118.223 126.99 127.812 127.491 133.418 133.709C139.023 139.927 138.521 149.507 132.297 155.107Z" fill="white"/>
<path fill-rule="evenodd" clip-rule="evenodd" d="M103.697 20.8334C104.38 21.0276 104.776 21.7379 104.581 22.42C102.369 30.1824 100.815 34.4839 97.5007 41.9225C97.2121 42.5704 96.4523 42.8617 95.8039 42.5733C95.1554 42.2849 94.8637 41.526 95.1524 40.8781C98.4171 33.5515 99.9298 29.3641 102.109 21.7168C102.303 21.0348 103.014 20.6393 103.697 20.8334Z" fill="white"/>
<path fill-rule="evenodd" clip-rule="evenodd" d="M80.7523 18.2894C80.4459 17.6497 80.7166 16.883 81.3569 16.5769C82.3804 16.0877 85.3399 14.6942 88.0379 13.4257C89.3881 12.7909 90.6746 12.1866 91.6236 11.7409C92.098 11.5181 92.4881 11.3349 92.7596 11.2075L93.1839 11.0083C93.1839 11.0083 93.184 11.0083 93.7305 12.1704C94.277 13.3326 94.2769 13.3326 94.2769 13.3326L93.8529 13.5317C93.5815 13.6591 93.1915 13.8422 92.7171 14.065C91.7684 14.5105 90.4823 15.1147 89.1325 15.7493C86.4304 17.0197 83.4805 18.4086 82.4664 18.8934C81.8261 19.1995 81.0587 18.9291 80.7523 18.2894ZM94.8938 11.6245C95.1956 12.2663 94.9194 13.0311 94.2769 13.3326L93.7305 12.1704L93.1839 11.0083C93.8264 10.7068 94.592 10.9826 94.8938 11.6245Z" fill="white"/>
<path fill-rule="evenodd" clip-rule="evenodd" d="M147.915 18.8797C140.809 14.4937 132.649 12.0726 121.2 10.5843C120.496 10.4928 120 9.84853 120.091 9.14533C120.183 8.44212 120.828 7.94624 121.532 8.03774C133.178 9.55171 141.734 12.0463 149.266 16.6949C156.785 21.3355 163.179 28.0595 170.606 37.8451C171.035 38.4101 170.924 39.2155 170.358 39.644C169.792 40.0724 168.986 39.9616 168.557 39.3966C161.201 29.7035 155.035 23.2737 147.915 18.8797ZM114.185 19.4004C114.817 19.0771 115.592 19.3266 115.915 19.9578L121.696 31.2305C122.019 31.8616 121.769 32.6354 121.138 32.9587C120.506 33.282 119.731 33.0324 119.408 32.4013L113.627 21.1286C113.304 20.4974 113.554 19.7237 114.185 19.4004Z" fill="white"/>
<path fill-rule="evenodd" clip-rule="evenodd" d="M126.13 43.5228C126.802 43.2918 127.533 43.6482 127.764 44.3187L130.977 53.6389C131.208 54.3094 130.852 55.0401 130.18 55.271C129.509 55.5019 128.778 55.1456 128.547 54.4751L125.334 45.1549C125.103 44.4844 125.459 43.7537 126.13 43.5228Z" fill="white"/>
<path fill-rule="evenodd" clip-rule="evenodd" d="M161.148 58.2258C161.356 58.9037 160.975 59.6219 160.296 59.83L144.758 64.5943C144.079 64.8023 143.36 64.4214 143.152 63.7435C142.944 63.0656 143.325 62.3473 144.004 62.1393L159.542 57.375C160.221 57.1669 160.94 57.5478 161.148 58.2258Z" fill="white"/>
<path fill-rule="evenodd" clip-rule="evenodd" d="M162.027 48.999C161.8 49.6709 161.071 50.032 160.398 49.8054C138.764 42.5168 126.452 39.4672 103.885 36.4097C103.182 36.3144 102.689 35.6675 102.784 34.9648C102.88 34.2621 103.527 33.7697 104.231 33.865C126.975 36.9465 139.446 40.0367 161.22 47.372C161.892 47.5986 162.254 48.327 162.027 48.999Z" fill="white"/>
<path fill-rule="evenodd" clip-rule="evenodd" d="M122.042 60.3272C121.705 60.951 120.925 61.1834 120.3 60.8462C106.042 53.1473 97.9914 49.3232 83.4287 43.6438C82.7675 43.3859 82.4407 42.6414 82.6989 41.9808C82.957 41.3202 83.7023 40.9938 84.3635 41.2516C99.0379 46.9746 107.185 50.8452 121.523 58.5871C122.147 58.9243 122.38 59.7034 122.042 60.3272Z" fill="white"/>
<path fill-rule="evenodd" clip-rule="evenodd" d="M94.4694 34.2308C94.4548 34.9398 93.8677 35.5028 93.158 35.4882L85.5217 35.3316C84.812 35.3171 84.2485 34.7305 84.263 34.0215C84.2776 33.3125 84.8647 32.7496 85.5744 32.7641L93.2108 32.9207C93.9205 32.9353 94.484 33.5218 94.4694 34.2308Z" fill="white"/>
<path fill-rule="evenodd" clip-rule="evenodd" d="M159.076 99.222C152.561 89.723 148.629 84.6901 140.922 76.2859C140.442 75.763 140.478 74.9508 141.001 74.4718C141.525 73.9927 142.338 74.0283 142.817 74.5511C150.613 83.0525 154.619 88.1813 161.197 97.7704C161.598 98.3554 161.449 99.1546 160.863 99.5554C160.278 99.9563 159.478 99.807 159.076 99.222ZM121.164 70.8274C121.462 71.471 121.181 72.2341 120.537 72.5317L102.382 80.9171C101.737 81.2147 100.974 80.9342 100.676 80.2905C100.378 79.6468 100.659 78.8838 101.303 78.5862L119.458 70.2007C120.102 69.9031 120.866 70.1837 121.164 70.8274Z" fill="white"/>
<path fill-rule="evenodd" clip-rule="evenodd" d="M133.646 78.6132C134.355 78.6572 134.893 79.2667 134.849 79.9745C134.086 92.2299 133.459 98.9826 132.018 110.814C131.932 111.518 131.292 112.019 130.587 111.934C129.882 111.848 129.381 111.208 129.466 110.504C130.901 98.7224 131.524 92.0199 132.284 79.815C132.328 79.1072 132.938 78.5692 133.646 78.6132ZM92.0493 49.7922C92.6623 50.1496 92.8693 50.9359 92.5114 51.5484L88.113 59.0768C87.7551 59.6892 86.9681 59.8959 86.355 59.5385C85.742 59.181 85.5351 58.3947 85.8929 57.7823L90.2914 50.2539C90.6492 49.6414 91.4362 49.4347 92.0493 49.7922Z" fill="white"/>
<path fill-rule="evenodd" clip-rule="evenodd" d="M179.295 70.0292C180.004 70.0733 180.542 70.6828 180.498 71.3906C179.869 81.4734 179.036 87.2626 176.557 97.59C176.391 98.2795 175.698 98.7045 175.007 98.5391C174.317 98.3738 173.892 97.6807 174.057 96.9911C176.501 86.8106 177.312 81.1683 177.933 71.2307C177.977 70.523 178.587 69.985 179.295 70.0292ZM154.719 114.97C154.801 115.675 154.296 116.312 153.591 116.395C139.944 117.989 132.122 118.284 117.943 117.52C117.234 117.482 116.69 116.877 116.729 116.169C116.767 115.461 117.373 114.918 118.081 114.956C132.11 115.711 139.786 115.422 153.293 113.844C153.998 113.762 154.636 114.266 154.719 114.97ZM159.555 122.67C160.054 123.174 160.05 123.987 159.546 124.486C152.652 131.304 148.516 134.867 140.177 139.688C139.563 140.043 138.777 139.833 138.421 139.22C138.066 138.606 138.275 137.82 138.89 137.465C146.98 132.788 150.942 129.382 157.737 122.661C158.242 122.162 159.056 122.166 159.555 122.67ZM75.2982 50.303C75.8573 49.8661 76.6651 49.9647 77.1025 50.5233C97.7291 76.8661 106.371 93.4582 117.509 125.424C117.743 126.094 117.389 126.825 116.718 127.059C116.048 127.292 115.315 126.938 115.082 126.268C104.027 94.543 95.5143 78.2055 75.0778 52.1055C74.6404 51.5469 74.7391 50.74 75.2982 50.303ZM82.7759 65.9304C83.3441 66.3555 83.4598 67.1602 83.0343 67.7278C73.921 79.8855 68.5408 86.5143 58.3964 97.8656C57.9237 98.3946 57.1112 98.4405 56.5817 97.9683C56.0522 97.496 56.0061 96.6843 56.4789 96.1553C66.5706 84.863 71.9043 78.2916 80.9767 66.1885C81.4022 65.6209 82.2077 65.5053 82.7759 65.9304ZM93.1458 83.5855C93.4913 84.205 93.2686 84.9869 92.6485 85.3321L61.0899 102.897C60.4698 103.242 59.6871 103.019 59.3416 102.4C58.9962 101.781 59.2188 100.999 59.8389 100.653L91.3975 83.0887C92.0176 82.7436 92.8003 82.966 93.1458 83.5855ZM50.4711 51.1169C51.1336 51.3714 51.4642 52.1143 51.2094 52.7762C48.2881 60.366 46.4588 66.3488 45.5792 72.5979C44.6999 78.845 44.7613 85.4201 45.6905 94.1945C45.7652 94.8997 45.2535 95.5319 44.5476 95.6065C43.8417 95.6811 43.2089 95.1699 43.1342 94.4647C42.1921 85.5687 42.115 78.7674 43.0337 72.2403C43.9522 65.7151 45.8573 59.5261 48.8102 51.8545C49.0649 51.1926 49.8085 50.8624 50.4711 51.1169ZM106.953 115.614C106.874 116.319 106.238 116.827 105.533 116.748C88.1441 114.812 78.3246 113.373 60.7068 109.971C60.0098 109.836 59.5541 109.163 59.6888 108.466C59.8235 107.77 60.4977 107.315 61.1946 107.45C78.74 110.838 88.4914 112.267 105.818 114.196C106.523 114.274 107.031 114.909 106.953 115.614ZM103.667 145.895C103.574 146.598 102.928 147.093 102.225 147C90.8392 145.503 82.438 143.098 74.9663 138.692C67.5063 134.293 61.0704 127.957 53.5271 118.765C53.0771 118.216 53.1573 117.407 53.7062 116.958C54.2552 116.508 55.065 116.588 55.515 117.137C62.986 126.241 69.1958 132.308 76.2729 136.481C83.3383 140.647 91.3657 142.982 102.56 144.454C103.264 144.547 103.759 145.192 103.667 145.895Z" fill="white"/>
<path fill-rule="evenodd" clip-rule="evenodd" d="M128.761 121.971C129.44 122.176 129.825 122.892 129.619 123.571L128.519 127.211C128.313 127.89 127.596 128.274 126.917 128.069C126.237 127.864 125.853 127.147 126.058 126.468L127.159 122.828C127.364 122.15 128.081 121.765 128.761 121.971Z" fill="white"/>
<mask id="path-2-outside-1_4_170" maskUnits="userSpaceOnUse" x="51" y="67" width="128" height="29" fill="black">
<rect fill="white" x="51" y="67" width="128" height="29"/>
<path d="M58.1823 82.5656H59.0131C59.0746 82.5194 59.163 82.454 59.2784 82.3694C59.4015 82.2771 59.6207 82.0617 59.9361 81.7233C60.2515 81.3848 60.5399 81.0195 60.8015 80.6272C61.0707 80.2349 61.3553 79.7041 61.6553 79.0349C61.9553 78.3657 62.186 77.6503 62.3476 76.8888L63.5014 71.4544H77.0932L74.7279 82.5656H76.4933L74.7048 91.0691H68.5551L69.2243 88H63.1898L62.5322 91.0691H56.417L58.1823 82.5656ZM68.2551 76.8888C68.1012 77.6426 67.8935 78.3542 67.632 79.0234C67.3705 79.6849 67.1089 80.2233 66.8474 80.6387C66.5859 81.0541 66.3397 81.4156 66.109 81.7233C65.8859 82.031 65.6936 82.2502 65.5321 82.381L65.3244 82.5656H68.5781L69.7896 76.8888H68.2551ZM83.0252 83.0386H90.698L89.6596 88H75.837L79.333 71.4544H92.9249L91.8864 76.4158H84.4444L84.2021 77.4888H89.7519L88.8173 81.9771H83.256L83.0252 83.0386ZM99.3299 82.704L97.7722 84.3424L96.9992 88H90.8494L94.3454 71.4544H100.495L99.526 76.0465L103.876 71.4544H110.891L104.222 78.458L107.868 88H101.314L99.3299 82.704ZM121.796 71.4544L124.161 88H117.711L117.585 85.1616H113.569L112.277 88H105.493L114.85 71.4544H121.796ZM117.354 80.6733L117.238 77.3619L115.704 80.6733H117.354ZM143.604 71.4544L140.108 88H133.97L135.17 82.3233H131.27L130.07 88H123.92L127.416 71.4544H133.566L132.401 76.8888H136.301L137.466 71.4544H143.604ZM156.182 71.4544L158.548 88H152.098L151.971 85.1616H147.956L146.663 88H139.879L149.236 71.4544H156.182ZM151.74 80.6733L151.625 77.3619L150.09 80.6733H151.74ZM159.195 71.4544H173.848L172.637 77.1311H168.391L166.095 88H159.945L162.241 77.1311H157.984L159.195 71.4544Z"/>
</mask>
<path d="M58.1823 82.5656H59.0131C59.0746 82.5194 59.163 82.454 59.2784 82.3694C59.4015 82.2771 59.6207 82.0617 59.9361 81.7233C60.2515 81.3848 60.5399 81.0195 60.8015 80.6272C61.0707 80.2349 61.3553 79.7041 61.6553 79.0349C61.9553 78.3657 62.186 77.6503 62.3476 76.8888L63.5014 71.4544H77.0932L74.7279 82.5656H76.4933L74.7048 91.0691H68.5551L69.2243 88H63.1898L62.5322 91.0691H56.417L58.1823 82.5656ZM68.2551 76.8888C68.1012 77.6426 67.8935 78.3542 67.632 79.0234C67.3705 79.6849 67.1089 80.2233 66.8474 80.6387C66.5859 81.0541 66.3397 81.4156 66.109 81.7233C65.8859 82.031 65.6936 82.2502 65.5321 82.381L65.3244 82.5656H68.5781L69.7896 76.8888H68.2551ZM83.0252 83.0386H90.698L89.6596 88H75.837L79.333 71.4544H92.9249L91.8864 76.4158H84.4444L84.2021 77.4888H89.7519L88.8173 81.9771H83.256L83.0252 83.0386ZM99.3299 82.704L97.7722 84.3424L96.9992 88H90.8494L94.3454 71.4544H100.495L99.526 76.0465L103.876 71.4544H110.891L104.222 78.458L107.868 88H101.314L99.3299 82.704ZM121.796 71.4544L124.161 88H117.711L117.585 85.1616H113.569L112.277 88H105.493L114.85 71.4544H121.796ZM117.354 80.6733L117.238 77.3619L115.704 80.6733H117.354ZM143.604 71.4544L140.108 88H133.97L135.17 82.3233H131.27L130.07 88H123.92L127.416 71.4544H133.566L132.401 76.8888H136.301L137.466 71.4544H143.604ZM156.182 71.4544L158.548 88H152.098L151.971 85.1616H147.956L146.663 88H139.879L149.236 71.4544H156.182ZM151.74 80.6733L151.625 77.3619L150.09 80.6733H151.74ZM159.195 71.4544H173.848L172.637 77.1311H168.391L166.095 88H159.945L162.241 77.1311H157.984L159.195 71.4544Z" fill="#1C1C1C"/>
<path d="M58.1823 82.5656V78.4056H54.7972L54.1092 81.72L58.1823 82.5656ZM59.0131 82.5656V86.7256H60.3997L61.5091 85.8936L59.0131 82.5656ZM59.2784 82.3694L61.7385 85.7241L61.7565 85.7108L61.7744 85.6974L59.2784 82.3694ZM59.9361 81.7233L56.8926 78.8873L59.9361 81.7233ZM60.8015 80.6272L57.3715 78.2733L57.3556 78.2963L57.3401 78.3196L60.8015 80.6272ZM62.3476 76.8888L58.2783 76.0249L58.2781 76.0256L62.3476 76.8888ZM63.5014 71.4544V67.2944H60.1319L59.4321 70.5904L63.5014 71.4544ZM77.0932 71.4544L81.1621 72.3205L82.232 67.2944H77.0932V71.4544ZM74.7279 82.5656L70.6591 81.6994L69.5891 86.7256H74.7279V82.5656ZM76.4933 82.5656L80.5642 83.4217L81.6192 78.4056H76.4933V82.5656ZM74.7048 91.0691V95.2291H78.081L78.7758 91.9253L74.7048 91.0691ZM68.555 91.0691L64.4905 90.1829L63.3902 95.2291H68.555V91.0691ZM69.2243 88L73.2888 88.8862L74.3891 83.84H69.2243V88ZM63.1898 88V83.84H59.8268L59.1222 87.1284L63.1898 88ZM62.5322 91.0691V95.2291H65.8952L66.5998 91.9408L62.5322 91.0691ZM56.417 91.0691L52.3438 90.2235L51.3047 95.2291H56.417V91.0691ZM68.2551 76.8888V72.7288H64.8583L64.1791 76.057L68.2551 76.8888ZM67.632 79.0234L71.5006 80.5528L71.5037 80.5452L71.5066 80.5376L67.632 79.0234ZM66.109 81.7233L62.781 79.2273L62.7608 79.2542L62.741 79.2815L66.109 81.7233ZM65.5321 82.381L62.9146 79.1476L62.84 79.208L62.7683 79.2717L65.5321 82.381ZM65.3244 82.5656L62.5606 79.4563L54.3828 86.7256H65.3244V82.5656ZM68.5781 82.5656V86.7256H71.944L72.6465 83.4338L68.5781 82.5656ZM69.7896 76.8888L73.858 77.7571L74.9311 72.7288H69.7896V76.8888ZM58.1823 86.7256H59.0131V78.4056H58.1823V86.7256ZM61.5091 85.8936C61.5526 85.8609 61.6268 85.806 61.7385 85.7241L56.8184 79.0148C56.6993 79.1021 56.5966 79.1779 56.5171 79.2376L61.5091 85.8936ZM61.7744 85.6974C62.2426 85.3463 62.7076 84.8512 62.9796 84.5593L56.8926 78.8873C56.8272 78.9575 56.7714 79.0163 56.7245 79.0649C56.6772 79.1139 56.6428 79.1485 56.6197 79.1712C56.5953 79.1952 56.5926 79.1969 56.6078 79.1833C56.6161 79.1758 56.6338 79.1601 56.6598 79.1384C56.6848 79.1174 56.7266 79.0833 56.7824 79.0414L61.7744 85.6974ZM62.9796 84.5593C63.4512 84.0531 63.8789 83.5106 64.2628 82.9347L57.3401 78.3196C57.201 78.5283 57.0517 78.7165 56.8926 78.8873L62.9796 84.5593ZM64.2314 82.9811C64.6961 82.3039 65.0976 81.5256 65.4513 80.7366L57.8592 77.3332C57.613 77.8826 57.4452 78.1658 57.3715 78.2733L64.2314 82.9811ZM65.4513 80.7366C65.879 79.7824 66.198 78.7843 66.417 77.752L58.2781 76.0256C58.174 76.5163 58.0315 76.949 57.8592 77.3332L65.4513 80.7366ZM66.4169 77.7528L67.5707 72.3184L59.4321 70.5904L58.2783 76.0249L66.4169 77.7528ZM63.5014 75.6144H77.0932V67.2944H63.5014V75.6144ZM73.0244 70.5882L70.6591 81.6994L78.7968 83.4317L81.1621 72.3205L73.0244 70.5882ZM74.7279 86.7256H76.4933V78.4056H74.7279V86.7256ZM72.4223 81.7094L70.6339 90.213L78.7758 91.9253L80.5642 83.4217L72.4223 81.7094ZM74.7048 86.9091H68.555V95.2291H74.7048V86.9091ZM72.6196 91.9554L73.2888 88.8862L65.1598 87.1138L64.4905 90.1829L72.6196 91.9554ZM69.2243 83.84H63.1898V92.16H69.2243V83.84ZM59.1222 87.1284L58.4645 90.1975L66.5998 91.9408L67.2575 88.8716L59.1222 87.1284ZM62.5322 86.9091H56.417V95.2291H62.5322V86.9091ZM60.4901 91.9147L62.2555 83.4111L54.1092 81.72L52.3438 90.2235L60.4901 91.9147ZM64.1791 76.057C64.0694 76.5943 63.9266 77.0762 63.7574 77.5091L71.5066 80.5376C71.8605 79.6321 72.133 78.691 72.331 77.7207L64.1791 76.057ZM63.7634 77.4939C63.5583 78.0126 63.4055 78.2976 63.3271 78.4222L70.3677 82.8552C70.8123 82.1491 71.1826 81.3572 71.5006 80.5528L63.7634 77.4939ZM63.3271 78.4222C63.1103 78.7665 62.9284 79.0308 62.781 79.2273L69.437 84.2193C69.7511 83.8004 70.0615 83.3416 70.3677 82.8552L63.3271 78.4222ZM62.741 79.2815C62.6838 79.3605 62.6605 79.3861 62.6701 79.3752C62.6761 79.3684 62.6974 79.3445 62.7335 79.3087C62.7689 79.2737 62.8294 79.2166 62.9146 79.1476L68.1495 85.6143C68.7386 85.1374 69.1853 84.5674 69.477 84.1651L62.741 79.2815ZM62.7683 79.2717L62.5606 79.4563L68.0881 85.6748L68.2958 85.4902L62.7683 79.2717ZM65.3244 86.7256H68.5781V78.4056H65.3244V86.7256ZM72.6465 83.4338L73.858 77.7571L65.7212 76.0206L64.5097 81.6973L72.6465 83.4338ZM69.7896 72.7288H68.2551V81.0488H69.7896V72.7288ZM83.0252 83.0386L78.9601 82.1549L77.8637 87.1986H83.0252V83.0386ZM90.698 83.0386L94.7698 83.8909L95.8189 78.8786H90.698V83.0386ZM89.6596 88V92.16H93.039L93.7314 88.8522L89.6596 88ZM75.837 88L71.7668 87.14L70.7061 92.16H75.837V88ZM79.333 71.4544V67.2944H75.9602L75.2629 70.5944L79.333 71.4544ZM92.9249 71.4544L96.9966 72.3066L98.0457 67.2944H92.9249V71.4544ZM91.8864 76.4158V80.5758H95.2659L95.9582 77.268L91.8864 76.4158ZM84.4444 76.4158V72.2558H81.119L80.3865 75.4995L84.4444 76.4158ZM84.2021 77.4888L80.1442 76.5725L78.998 81.6488H84.2021V77.4888ZM89.7519 77.4888L93.8245 78.3368L94.8673 73.3288H89.7519V77.4888ZM88.8173 81.9771V86.1371H92.2003L92.89 82.8252L88.8173 81.9771ZM83.256 81.9771V77.8171H79.9031L79.1909 81.0934L83.256 81.9771ZM83.0252 87.1986H90.698V78.8786H83.0252V87.1986ZM86.6263 82.1864L85.5878 87.1478L93.7314 88.8522L94.7698 83.8909L86.6263 82.1864ZM89.6596 83.84H75.837V92.16H89.6596V83.84ZM79.9071 88.86L83.4031 72.3144L75.2629 70.5944L71.7668 87.14L79.9071 88.86ZM79.333 75.6144H92.9249V67.2944H79.333V75.6144ZM88.8531 70.6022L87.8147 75.5635L95.9582 77.268L96.9966 72.3066L88.8531 70.6022ZM91.8864 72.2558H84.4444V80.5758H91.8864V72.2558ZM80.3865 75.4995L80.1442 76.5725L88.2599 78.4051L88.5022 77.332L80.3865 75.4995ZM84.2021 81.6488H89.7519V73.3288H84.2021V81.6488ZM85.6793 76.6408L84.7447 81.1291L92.89 82.8252L93.8245 78.3368L85.6793 76.6408ZM88.8173 77.8171H83.256V86.1371H88.8173V77.8171ZM79.1909 81.0934L78.9601 82.1549L87.0902 83.9223L87.321 82.8608L79.1909 81.0934ZM99.3299 82.704L103.225 81.2443L100.894 75.0217L96.315 79.8377L99.3299 82.704ZM97.7723 84.3424L94.7573 81.4761L93.9457 82.3298L93.7022 83.4822L97.7723 84.3424ZM96.9992 88V92.16H100.372L101.069 88.8602L96.9992 88ZM90.8494 88L86.7793 87.14L85.7186 92.16H90.8494V88ZM94.3454 71.4544V67.2944H90.9726L90.2753 70.5944L94.3454 71.4544ZM100.495 71.4544L104.566 72.3135L105.625 67.2944H100.495V71.4544ZM99.526 76.0465L95.4557 75.1875L92.4128 89.6053L102.546 78.9074L99.526 76.0465ZM103.876 71.4544V67.2944H102.086L100.856 68.5936L103.876 71.4544ZM110.891 71.4544L113.904 74.3231L120.597 67.2944H110.891V71.4544ZM104.222 78.458L101.209 75.5893L99.399 77.4905L100.336 79.9429L104.222 78.458ZM107.868 88V92.16H113.911L111.754 86.5152L107.868 88ZM101.314 88L97.419 89.4597L98.4308 92.16H101.314V88ZM96.315 79.8377L94.7573 81.4761L100.787 87.2087L102.345 85.5703L96.315 79.8377ZM93.7022 83.4822L92.9291 87.1398L101.069 88.8602L101.842 85.2027L93.7022 83.4822ZM96.9992 83.84H90.8494V92.16H96.9992V83.84ZM94.9195 88.86L98.4156 72.3144L90.2753 70.5944L86.7793 87.14L94.9195 88.86ZM94.3454 75.6144H100.495V67.2944H94.3454V75.6144ZM96.4249 70.5953L95.4557 75.1875L103.596 76.9056L104.566 72.3135L96.4249 70.5953ZM102.546 78.9074L106.896 74.3152L100.856 68.5936L96.5059 73.1857L102.546 78.9074ZM103.876 75.6144H110.891V67.2944H103.876V75.6144ZM107.878 68.5857L101.209 75.5893L107.235 81.3267L113.904 74.3231L107.878 68.5857ZM100.336 79.9429L103.982 89.4848L111.754 86.5152L108.108 76.9732L100.336 79.9429ZM107.868 83.84H101.314V92.16H107.868V83.84ZM105.21 86.5403L103.225 81.2443L95.4344 84.1638L97.419 89.4597L105.21 86.5403ZM121.796 71.4544L125.914 70.8657L125.404 67.2944H121.796V71.4544ZM124.161 88V92.16H128.958L128.279 87.4113L124.161 88ZM117.711 88L113.556 88.1858L113.733 92.16H117.711V88ZM117.585 85.1616L121.74 84.9758L121.563 81.0016H117.585V85.1616ZM113.569 85.1616V81.0016H110.892L109.783 83.4379L113.569 85.1616ZM112.277 88V92.16H114.954L116.063 89.7237L112.277 88ZM105.493 88L101.872 85.9521L98.3607 92.16H105.493V88ZM114.85 71.4544V67.2944H112.423L111.229 69.4065L114.85 71.4544ZM117.354 80.6733V84.8333H121.661L121.511 80.5285L117.354 80.6733ZM117.238 77.3619L121.396 77.217L113.464 75.6128L117.238 77.3619ZM115.704 80.6733L111.929 78.9242L109.191 84.8333H115.704V80.6733ZM117.678 72.0431L120.043 88.5887L128.279 87.4113L125.914 70.8657L117.678 72.0431ZM124.161 83.84H117.711V92.16H124.161V83.84ZM121.867 87.8142L121.74 84.9758L113.429 85.3475L113.556 88.1858L121.867 87.8142ZM117.585 81.0016H113.569V89.3216H117.585V81.0016ZM109.783 83.4379L108.491 86.2763L116.063 89.7237L117.355 86.8854L109.783 83.4379ZM112.277 83.84H105.493V92.16H112.277V83.84ZM109.114 90.0479L118.471 73.5023L111.229 69.4065L101.872 85.9521L109.114 90.0479ZM114.85 75.6144H121.796V67.2944H114.85V75.6144ZM121.511 80.5285L121.396 77.217L113.081 77.5067L113.196 80.8182L121.511 80.5285ZM113.464 75.6128L111.929 78.9242L119.478 82.4224L121.013 79.111L113.464 75.6128ZM115.704 84.8333H117.354V76.5133H115.704V84.8333ZM143.604 71.4544L147.674 72.3144L148.735 67.2944H143.604V71.4544ZM140.108 88V92.16H143.481L144.178 88.86L140.108 88ZM133.97 88L129.9 87.1397L128.839 92.16H133.97V88ZM135.17 82.3233L139.24 83.1836L140.301 78.1633H135.17V82.3233ZM131.27 82.3233V78.1633H127.898L127.2 81.4629L131.27 82.3233ZM130.07 88V92.16H133.443L134.14 88.8603L130.07 88ZM123.92 88L119.85 87.14L118.789 92.16H123.92V88ZM127.416 71.4544V67.2944H124.044L123.346 70.5944L127.416 71.4544ZM133.566 71.4544L137.634 72.3266L138.713 67.2944H133.566V71.4544ZM132.401 76.8888L128.333 76.0166L127.254 81.0488H132.401V76.8888ZM136.301 76.8888V81.0488H139.663L140.368 77.7611L136.301 76.8888ZM137.466 71.4544V67.2944H134.104L133.398 70.5822L137.466 71.4544ZM139.534 70.5944L136.038 87.14L144.178 88.86L147.674 72.3144L139.534 70.5944ZM140.108 83.84H133.97V92.16H140.108V83.84ZM138.04 88.8603L139.24 83.1836L131.1 81.4629L129.9 87.1397L138.04 88.8603ZM135.17 78.1633H131.27V86.4833H135.17V78.1633ZM127.2 81.4629L126 87.1397L134.14 88.8603L135.34 83.1836L127.2 81.4629ZM130.07 83.84H123.92V92.16H130.07V83.84ZM127.99 88.86L131.486 72.3144L123.346 70.5944L119.85 87.14L127.99 88.86ZM127.416 75.6144H133.566V67.2944H127.416V75.6144ZM129.499 70.5822L128.333 76.0166L136.468 77.7611L137.634 72.3266L129.499 70.5822ZM132.401 81.0488H136.301V72.7288H132.401V81.0488ZM140.368 77.7611L141.534 72.3266L133.398 70.5822L132.233 76.0166L140.368 77.7611ZM137.466 75.6144H143.604V67.2944H137.466V75.6144ZM156.182 71.4544L160.3 70.8657L159.79 67.2944H156.182V71.4544ZM158.548 88V92.16H163.344L162.666 87.4113L158.548 88ZM152.098 88L147.942 88.1858L148.12 92.16H152.098V88ZM151.971 85.1616L156.127 84.9758L155.949 81.0016H151.971V85.1616ZM147.956 85.1616V81.0016H145.279L144.169 83.4379L147.956 85.1616ZM146.663 88V92.16H149.34L150.449 89.7237L146.663 88ZM139.879 88L136.258 85.9521L132.747 92.16H139.879V88ZM149.236 71.4544V67.2944H146.81L145.615 69.4065L149.236 71.4544ZM151.74 80.6733V84.8333H156.048L155.898 80.5285L151.74 80.6733ZM151.625 77.3619L155.782 77.217L147.85 75.6128L151.625 77.3619ZM150.09 80.6733L146.316 78.9242L143.577 84.8333H150.09V80.6733ZM152.064 72.0431L154.429 88.5887L162.666 87.4113L160.3 70.8657L152.064 72.0431ZM158.548 83.84H152.098V92.16H158.548V83.84ZM156.254 87.8142L156.127 84.9758L147.815 85.3475L147.942 88.1858L156.254 87.8142ZM151.971 81.0016H147.956V89.3216H151.971V81.0016ZM144.169 83.4379L142.877 86.2763L150.449 89.7237L151.742 86.8854L144.169 83.4379ZM146.663 83.84H139.879V92.16H146.663V83.84ZM143.5 90.0479L152.857 73.5023L145.615 69.4065L136.258 85.9521L143.5 90.0479ZM149.236 75.6144H156.182V67.2944H149.236V75.6144ZM155.898 80.5285L155.782 77.217L147.467 77.5067L147.583 80.8182L155.898 80.5285ZM147.85 75.6128L146.316 78.9242L153.864 82.4224L155.399 79.111L147.85 75.6128ZM150.09 84.8333H151.74V76.5133H150.09V84.8333ZM159.195 71.4544V67.2944H155.829L155.127 70.5861L159.195 71.4544ZM173.848 71.4544L177.917 72.3226L178.99 67.2944H173.848V71.4544ZM172.637 77.1311V81.2911H176.003L176.705 77.9994L172.637 77.1311ZM168.391 77.1311V72.9711H165.018L164.321 76.2713L168.391 77.1311ZM166.095 88V92.16H169.468L170.165 88.8598L166.095 88ZM159.945 88L155.875 87.1402L154.814 92.16H159.945V88ZM162.241 77.1311L166.311 77.991L167.372 72.9711H162.241V77.1311ZM157.984 77.1311L153.915 76.2629L152.842 81.2911H157.984V77.1311ZM159.195 75.6144H173.848V67.2944H159.195V75.6144ZM169.78 70.5861L168.569 76.2629L176.705 77.9994L177.917 72.3226L169.78 70.5861ZM172.637 72.9711H168.391V81.2911H172.637V72.9711ZM164.321 76.2713L162.025 87.1402L170.165 88.8598L172.461 77.991L164.321 76.2713ZM166.095 83.84H159.945V92.16H166.095V83.84ZM164.015 88.8598L166.311 77.991L158.171 76.2713L155.875 87.1402L164.015 88.8598ZM162.241 72.9711H157.984V81.2911H162.241V72.9711ZM162.052 77.9994L163.263 72.3226L155.127 70.5861L153.915 76.2629L162.052 77.9994Z" fill="#AE78F2" mask="url(#path-2-outside-1_4_170)"/>
</svg>
