<svg xmlns="http://www.w3.org/2000/svg" width="274" height="290" viewBox="0 0 274 290" fill="none">
  <path d="M66.8627 86.0197C52.4311 99.0731 30.196 97.905 17.1992 83.4106C4.20237 68.9162 5.36544 46.5843 19.797 33.5309C34.2285 20.4775 56.4636 21.6456 69.4604 36.14C82.4573 50.6344 81.2942 72.9663 66.8627 86.0197Z" fill="white"/>
  <path d="M135.727 31.6884C128.416 38.3014 117.152 37.7096 110.567 30.3666C103.983 23.0237 104.572 11.7101 111.883 5.09717C119.194 -1.5158 130.459 -0.924021 137.043 6.41895C143.628 13.7619 143.038 25.0754 135.727 31.6884Z" fill="white"/>
  <path d="M265.454 118.706C255.473 127.735 240.095 126.927 231.106 116.902C222.117 106.877 222.921 91.4317 232.902 82.4036C242.884 73.3755 258.262 74.1834 267.251 84.2081C276.24 94.2329 275.436 109.678 265.454 118.706Z" fill="white"/>
  <path d="M250.866 219.844C241.838 228.009 227.929 227.279 219.799 218.212C211.669 209.145 212.396 195.175 221.424 187.009C230.451 178.844 244.361 179.575 252.491 188.642C260.621 197.708 259.893 211.678 250.866 219.844Z" fill="white"/>
  <path d="M180.16 134.716C173.357 140.869 162.877 140.318 156.75 133.486C150.624 126.654 151.172 116.128 157.975 109.975C164.777 103.822 175.258 104.372 181.384 111.204C187.511 118.037 186.962 128.563 180.16 134.716Z" fill="white"/>
  <path d="M28.1685 205.612C21.3659 211.765 10.8851 211.215 4.75882 204.382C-1.36744 197.55 -0.819215 187.024 5.98332 180.871C12.7859 174.718 23.2667 175.269 29.393 182.101C35.5192 188.933 34.971 199.459 28.1685 205.612Z" fill="white"/>
  <path d="M169.177 282.424C157.924 292.603 140.586 291.692 130.452 280.39C120.318 269.088 121.225 251.675 132.478 241.497C143.731 231.319 161.068 232.23 171.202 243.531C181.336 254.833 180.429 272.246 169.177 282.424Z" fill="white"/>
  <path fill-rule="evenodd" clip-rule="evenodd" d="M117.469 38.3671C118.703 38.72 119.419 40.0111 119.068 41.2508C115.068 55.3598 112.259 63.1782 106.266 76.6988C105.744 77.8763 104.371 78.4059 103.198 77.8817C102.026 77.3575 101.499 75.978 102.021 74.8005C107.923 61.4836 110.658 53.8725 114.598 39.9727C114.949 38.733 116.235 38.0142 117.469 38.3671Z" fill="white"/>
  <path fill-rule="evenodd" clip-rule="evenodd" d="M75.9859 33.743C75.432 32.5804 75.9213 31.1868 77.079 30.6304C78.9294 29.7411 84.2801 27.2083 89.1579 24.9028C91.599 23.7489 93.925 22.6504 95.6406 21.8404C96.4985 21.4354 97.2037 21.1025 97.6946 20.8708L98.4616 20.5088C98.4616 20.5088 98.4618 20.5087 99.4499 22.6211C100.438 24.7334 100.438 24.7335 100.438 24.7335L99.6711 25.0953C99.1804 25.3269 98.4754 25.6597 97.6177 26.0646C95.9025 26.8744 93.5772 27.9726 91.1368 29.1261C86.2516 31.4352 80.9183 33.9597 79.085 34.8408C77.9274 35.3972 76.5399 34.9057 75.9859 33.743ZM101.553 21.6287C102.099 22.7953 101.599 24.1854 100.438 24.7335L99.4499 22.6211L98.4616 20.5088C99.6232 19.9608 101.007 20.4621 101.553 21.6287Z" fill="white"/>
  <path fill-rule="evenodd" clip-rule="evenodd" d="M197.413 34.8159C184.565 26.8438 169.812 22.4433 149.113 19.7381C147.841 19.5718 146.943 18.4008 147.109 17.1226C147.275 15.8445 148.44 14.9432 149.713 15.1095C170.768 17.8613 186.238 22.3954 199.855 30.8449C213.449 39.2797 225.01 51.5013 238.436 69.2876C239.212 70.3147 239.011 71.7786 237.989 72.5573C236.966 73.336 235.508 73.1347 234.733 72.1076C221.433 54.4893 210.284 42.8026 197.413 34.8159ZM136.431 35.7623C137.573 35.1747 138.974 35.6283 139.559 36.7754L150.009 57.2648C150.594 58.412 150.143 59.8184 149 60.406C147.858 60.9937 146.458 60.5401 145.873 59.3929L135.422 38.9035C134.837 37.7563 135.289 36.35 136.431 35.7623Z" fill="white"/>
  <path fill-rule="evenodd" clip-rule="evenodd" d="M158.027 79.6074C159.241 79.1877 160.563 79.8354 160.981 81.0541L166.79 97.9946C167.208 99.2133 166.563 100.541 165.349 100.961C164.136 101.381 162.814 100.733 162.396 99.5145L156.587 82.574C156.169 81.3553 156.814 80.0271 158.027 79.6074Z" fill="white"/>
  <path fill-rule="evenodd" clip-rule="evenodd" d="M221.337 106.332C221.714 107.564 221.024 108.869 219.797 109.248L191.705 117.907C190.478 118.285 189.178 117.593 188.801 116.361C188.425 115.129 189.114 113.823 190.341 113.445L218.434 104.785C219.661 104.407 220.961 105.1 221.337 106.332Z" fill="white"/>
  <path fill-rule="evenodd" clip-rule="evenodd" d="M222.926 89.561C222.516 90.7824 221.198 91.4386 219.982 91.0267C180.867 77.779 158.608 72.236 117.809 66.6786C116.537 66.5054 115.646 65.3295 115.819 64.0523C115.991 62.7751 117.162 61.8801 118.434 62.0533C159.554 67.6544 182.101 73.271 221.467 86.6038C222.683 87.0157 223.336 88.3397 222.926 89.561Z" fill="white"/>
  <path fill-rule="evenodd" clip-rule="evenodd" d="M150.636 110.151C150.025 111.285 148.616 111.708 147.487 111.095C121.708 97.1011 107.153 90.1503 80.8248 79.8275C79.6293 79.3587 79.0385 78.0054 79.5052 76.8047C79.9719 75.604 81.3194 75.0107 82.5149 75.4794C109.045 85.8815 123.774 92.9168 149.696 106.989C150.825 107.601 151.246 109.017 150.636 110.151Z" fill="white"/>
  <path fill-rule="evenodd" clip-rule="evenodd" d="M100.786 62.7183C100.759 64.007 99.6979 65.0302 98.4148 65.0037L84.6087 64.7191C83.3256 64.6926 82.3068 63.6265 82.3332 62.3379C82.3595 61.0492 83.421 60.026 84.7041 60.0524L98.5102 60.3371C99.7933 60.3635 100.812 61.4296 100.786 62.7183Z" fill="white"/>
  <path fill-rule="evenodd" clip-rule="evenodd" d="M217.592 180.847C205.811 163.581 198.703 154.434 184.769 139.158C183.902 138.208 183.967 136.731 184.913 135.861C185.859 134.99 187.329 135.055 188.196 136.005C202.291 151.457 209.533 160.779 221.425 178.208C222.151 179.272 221.881 180.724 220.822 181.453C219.763 182.182 218.317 181.91 217.592 180.847ZM149.048 129.237C149.587 130.406 149.079 131.793 147.914 132.334L115.091 147.576C113.926 148.117 112.545 147.607 112.006 146.437C111.468 145.267 111.976 143.88 113.14 143.339L145.964 128.098C147.129 127.557 148.51 128.067 149.048 129.237Z" fill="white"/>
  <path fill-rule="evenodd" clip-rule="evenodd" d="M171.616 143.388C172.896 143.468 173.87 144.576 173.791 145.862C172.411 168.138 171.276 180.412 168.672 201.917C168.517 203.196 167.359 204.107 166.085 203.952C164.811 203.796 163.904 202.633 164.059 201.353C166.652 179.939 167.778 167.756 169.152 145.573C169.232 144.286 170.335 143.308 171.616 143.388ZM96.4103 91.0028C97.5187 91.6525 97.8928 93.0816 97.2458 94.1948L89.2936 107.879C88.6467 108.992 87.2238 109.367 86.1154 108.718C85.007 108.068 84.633 106.639 85.2799 105.526L93.2321 91.8419C93.879 90.7287 95.302 90.353 96.4103 91.0028Z" fill="white"/>
  <path fill-rule="evenodd" clip-rule="evenodd" d="M254.147 127.786C255.428 127.866 256.401 128.974 256.321 130.26C255.183 148.587 253.677 159.109 249.195 177.88C248.896 179.134 247.642 179.906 246.394 179.606C245.146 179.305 244.377 178.045 244.676 176.792C249.094 158.288 250.561 148.032 251.683 129.97C251.763 128.683 252.866 127.705 254.147 127.786ZM209.713 209.471C209.862 210.751 208.949 211.91 207.675 212.06C183.002 214.957 168.86 215.494 143.225 214.106C141.943 214.036 140.96 212.936 141.029 211.649C141.098 210.362 142.193 209.375 143.475 209.445C168.838 210.818 182.716 210.292 207.135 207.424C208.41 207.274 209.564 208.191 209.713 209.471ZM218.457 223.467C219.36 224.383 219.353 225.86 218.441 226.767C205.977 239.159 198.5 245.635 183.423 254.398C182.312 255.044 180.891 254.663 180.248 253.547C179.605 252.431 179.985 251.004 181.095 250.358C195.721 241.857 202.885 235.666 215.171 223.45C216.083 222.543 217.554 222.551 218.457 223.467ZM66.1253 91.9313C67.1361 91.1372 68.5965 91.3164 69.3872 92.3316C106.679 140.213 122.303 170.371 142.441 228.472C142.863 229.689 142.222 231.019 141.01 231.443C139.798 231.867 138.474 231.223 138.052 230.006C118.065 172.342 102.675 142.647 65.7267 95.2075C64.936 94.1922 65.1144 92.7255 66.1253 91.9313ZM79.6446 120.336C80.6718 121.108 80.8809 122.571 80.1117 123.603C63.6352 145.701 53.9083 157.749 35.5677 178.381C34.713 179.343 33.244 179.427 32.2867 178.568C31.3294 177.71 31.2462 176.234 32.1009 175.273C50.3463 154.748 59.9892 142.804 76.3917 120.805C77.161 119.773 78.6173 119.563 79.6446 120.336ZM98.3927 152.426C99.0173 153.552 98.6148 154.973 97.4937 155.6L40.4375 187.526C39.3163 188.154 37.9012 187.749 37.2766 186.623C36.652 185.497 37.0545 184.076 38.1756 183.449L95.2319 151.523C96.353 150.896 97.7681 151.3 98.3927 152.426ZM21.2391 93.4106C22.437 93.8732 23.0346 95.2235 22.574 96.4266C17.2924 110.222 13.9851 121.096 12.3949 132.455C10.8052 143.809 10.916 155.76 12.5961 171.709C12.7311 172.991 11.806 174.14 10.5298 174.275C9.25355 174.411 8.10952 173.482 7.97449 172.2C6.27115 156.031 6.1318 143.668 7.79278 131.805C9.45327 119.945 12.8977 108.695 18.2362 94.7513C18.6968 93.5483 20.0413 92.948 21.2391 93.4106ZM123.355 210.641C123.213 211.922 122.064 212.845 120.788 212.702C89.3499 209.184 71.5967 206.568 39.7447 200.384C38.4847 200.14 37.6607 198.915 37.9042 197.65C38.1478 196.384 39.3667 195.557 40.6267 195.801C72.3477 201.96 89.9778 204.558 121.303 208.064C122.578 208.206 123.497 209.36 123.355 210.641ZM117.414 265.68C117.246 266.958 116.079 267.858 114.807 267.689C94.2225 264.967 79.0337 260.596 65.5252 252.588C52.0379 244.593 40.4021 233.076 26.7643 216.368C25.9507 215.371 26.0956 213.901 27.0881 213.084C28.0806 212.267 29.5447 212.412 30.3583 213.409C43.8654 229.957 55.0923 240.984 67.8874 248.568C80.6613 256.141 95.1743 260.385 115.413 263.062C116.686 263.23 117.581 264.402 117.414 265.68Z" fill="white"/>
  <path fill-rule="evenodd" clip-rule="evenodd" d="M162.783 222.195C164.011 222.568 164.706 223.87 164.335 225.104L162.345 231.72C161.974 232.953 160.677 233.652 159.449 233.279C158.22 232.906 157.525 231.604 157.896 230.37L159.886 223.754C160.257 222.52 161.554 221.822 162.783 222.195Z" fill="white"/>
</svg>